<?xml version="1.0" standalone="no"?>
<!DOCTYPE svg PUBLIC "-//W3C//DTD SVG 20010904//EN"
 "http://www.w3.org/TR/2001/REC-SVG-20010904/DTD/svg10.dtd">
<svg version="1.0" xmlns="http://www.w3.org/2000/svg"
 width="500.000000pt" height="500.000000pt" viewBox="0 0 500.000000 500.000000"
 preserveAspectRatio="xMidYMid meet">

<g transform="translate(0.000000,500.000000) scale(0.100000,-0.100000)"
fill="#000000" stroke="none">
<path d="M2265 3195 c-307 -39 -570 -155 -805 -357 -66 -57 -190 -187 -190
-200 0 -2 36 31 81 74 216 210 482 352 787 421 83 18 127 22 307 21 227 0 309
-12 482 -69 166 -55 388 -182 497 -283 21 -21 36 -31 31 -24 -12 22 -92 93
-174 155 -77 58 -275 162 -366 192 -104 35 -201 56 -313 70 -137 17 -201 17
-337 0z"/>
<path d="M1378 2610 c-76 -23 -124 -74 -149 -158 -28 -97 40 -225 136 -251
134 -37 274 26 305 137 32 118 -23 230 -131 265 -54 18 -116 21 -161 7z m122
-15 c34 -10 68 -42 91 -87 28 -54 27 -177 -2 -228 -57 -102 -198 -101 -266 1
-25 38 -28 51 -28 128 0 120 32 171 120 192 30 7 40 6 85 -6z"/>
<path d="M2930 2611 c-115 -37 -168 -116 -157 -233 10 -107 82 -175 195 -185
75 -7 135 10 182 53 50 46 70 90 70 158 0 88 -39 154 -113 192 -33 18 -142 27
-177 15z m140 -30 c68 -36 107 -161 80 -257 -34 -121 -173 -160 -259 -72 -59
60 -76 190 -36 267 15 29 52 66 75 74 34 12 107 6 140 -12z"/>
<path d="M1915 2405 l0 -205 34 0 34 0 -6 95 c-6 93 -6 95 16 95 16 -1 41 -26
92 -95 63 -86 73 -95 103 -95 30 0 42 12 23 24 -20 13 -131 168 -126 176 4 6
14 10 25 10 10 0 32 13 49 29 36 34 41 76 14 122 -23 38 -59 49 -167 49 l-91
0 0 -205z m182 170 c27 -19 38 -70 24 -107 -13 -35 -62 -60 -109 -56 l-37 3
-3 88 -3 87 53 0 c32 0 62 -6 75 -15z"/>
<path d="M2470 2405 l0 -205 30 0 30 0 0 205 0 205 -30 0 -30 0 0 -205z"/>
<path d="M3454 2594 c3 -9 6 -101 6 -205 0 -164 2 -189 15 -189 14 0 15 20 9
165 -5 106 -3 165 3 165 5 0 52 -51 104 -112 141 -169 193 -228 201 -228 5 0
8 95 8 210 0 185 -2 210 -16 210 -14 0 -15 -17 -9 -155 5 -94 4 -155 -2 -155
-5 0 -67 70 -138 155 -112 134 -133 155 -158 155 -22 0 -28 -4 -23 -16z"/>
<path d="M1620 2057 c0 -12 173 -114 265 -158 212 -99 365 -133 595 -133 180
0 264 13 424 65 97 32 276 116 316 149 14 11 -22 -2 -80 -29 -129 -61 -234
-95 -369 -121 -375 -73 -777 2 -1108 205 -24 14 -43 24 -43 22z"/>
</g>
</svg>
